<?xml version="1.0" standalone="no"?>
<!DOCTYPE svg PUBLIC "-//W3C//DTD SVG 20010904//EN"
 "http://www.w3.org/TR/2001/REC-SVG-20010904/DTD/svg10.dtd">
<svg version="1.0" xmlns="http://www.w3.org/2000/svg"
 width="400.000000pt" height="400.000000pt" viewBox="0 0 400.000000 400.000000"
 preserveAspectRatio="xMidYMid meet">
<metadata>
Created by potrace 1.14, written by Peter Selinger 2001-2017
</metadata>
<g transform="translate(0.000000,400.000000) scale(0.100000,-0.100000)"
fill="#000000" stroke="none">
<path d="M672 3917 c-18 -6 -44 -20 -57 -33 -25 -23 -25 -28 -25 -146 1 -73
-5 -152 -13 -193 -8 -38 -18 -95 -22 -125 -4 -30 -9 -64 -12 -75 -2 -11 -6
-33 -9 -50 -3 -16 -25 -108 -49 -202 -25 -95 -47 -185 -50 -200 -3 -16 -8 -39
-11 -52 -3 -14 -7 -28 -10 -33 -3 -5 -8 -21 -10 -36 -3 -15 -11 -63 -19 -107
-22 -121 -24 -136 -31 -195 -3 -30 -7 -66 -10 -80 -4 -24 -11 -110 -19 -235
-5 -74 -5 -435 0 -530 7 -135 19 -280 30 -370 2 -16 9 -68 15 -115 22 -175 25
-197 45 -305 20 -107 20 -107 49 -205 70 -237 165 -383 307 -472 74 -46 101
-57 194 -77 126 -28 262 -18 403 28 166 55 276 122 417 256 50 47 100 88 113
92 26 6 27 5 103 -106 123 -178 242 -244 428 -237 240 9 427 116 592 338 192
259 301 528 463 1143 43 161 104 483 120 630 24 215 25 576 2 701 -2 10 -9 53
-16 94 -45 281 -182 584 -287 639 -32 16 -95 13 -123 -6 -66 -46 -114 -144
-112 -227 1 -23 15 -44 61 -88 176 -167 224 -375 225 -963 0 -219 -5 -310 -23
-415 -6 -30 -12 -71 -15 -90 -33 -246 -163 -698 -272 -943 -122 -276 -282
-447 -417 -447 -176 0 -391 303 -390 550 0 58 6 79 62 199 106 229 178 476
210 723 29 219 -18 605 -79 649 -52 38 -269 41 -338 5 -80 -41 -158 -137 -222
-271 -32 -67 -95 -241 -104 -288 -3 -12 -13 -56 -24 -97 -39 -148 -56 -315
-56 -535 1 -231 16 -361 74 -600 15 -66 26 -132 23 -146 -6 -33 -47 -72 -136
-133 -85 -57 -113 -61 -198 -24 -149 63 -232 271 -233 583 0 83 11 281 18 325
3 14 7 52 10 85 3 33 8 69 10 80 2 11 7 45 10 76 4 31 9 67 12 80 4 13 7 110
9 214 3 175 9 284 20 360 3 17 7 48 10 70 5 36 13 84 20 125 10 52 33 141 84
330 62 227 96 369 105 435 18 136 18 133 -8 192 -48 104 -231 260 -411 351
-65 33 -182 83 -205 87 -111 22 -180 26 -228 12z m1606 -1662 c13 -41 19 -195
8 -250 -3 -16 -7 -51 -10 -77 -8 -64 -13 -98 -42 -278 -14 -85 -27 -171 -30
-190 -3 -19 -7 -42 -10 -50 -3 -8 -8 -33 -11 -55 -12 -88 -20 -77 -43 61 -30
185 -31 191 -31 324 -1 123 46 431 77 509 25 64 72 66 92 6z"/>
</g>
</svg>
